<?xml version="1.0" encoding="UTF-8" standalone="no"?>
<svg
   xmlns:dc="http://purl.org/dc/elements/1.1/"
   xmlns:cc="http://creativecommons.org/ns#"
   xmlns:rdf="http://www.w3.org/1999/02/22-rdf-syntax-ns#"
   xmlns:svg="http://www.w3.org/2000/svg"
   xmlns="http://www.w3.org/2000/svg"
   id="Camada_1"
   data-name="Camada 1"
   viewBox="0 0 256 256"
   version="1.1">
  <metadata
     id="metadata60">
    <rdf:RDF>
      <cc:Work
         rdf:about="">
        <dc:format>image/svg+xml</dc:format>
        <dc:type
           rdf:resource="http://purl.org/dc/dcmitype/StillImage" />
        <dc:title>icon</dc:title>
      </cc:Work>
    </rdf:RDF>
  </metadata>
  <defs
     id="defs7">
    <style
       id="style2">.cls-1{fill:none;}.cls-2{clip-path:url(#clip-path);}.cls-3{opacity:0.2;}.cls-4{fill:#a4ccd6;}.cls-5{fill:#7db6c4;}.cls-6{fill:#fff;}.cls-7{fill:#56a0b0;}.cls-8{fill:#1f2f56;}</style>
    <clipPath
       id="clip-path">
      <rect
         class="cls-1"
         x="-178"
         y="-626"
         width="1544"
         height="500"
         id="rect4" />
    </clipPath>
  </defs>
  <title
     id="title9">icon</title>
  <rect
     style="fill:#ffffff;fill-opacity:1"
     class="cls-6"
     width="256"
     height="256"
     id="rect19" />
  <g
     transform="translate(0,3.2542367)"
     id="g993">
    <g
       id="g867"
       transform="matrix(1.1048263,0,0,1.1048263,-9.350888,-16.362803)">
      <path
         style="fill:#a4ccd6;stroke-width:0.71782422"
         class="cls-4"
         d="m 129.90613,82.168599 a 105.4412,105.4412 0 0 1 17.69437,6.460418 q 2.58417,1.205945 4.8812,2.498028 c 12.81317,-14.255988 14.23446,-27.607518 5.23294,-36.609034 v 0 c -9.00869,-9.066119 -22.38893,-7.630471 -36.65928,5.240117 q 1.24184,2.225255 2.40471,4.708927 a 105.4412,105.4412 0 0 1 6.44606,17.701544 z"
         id="path21" />
      <path
         style="fill:#7db6c4;stroke-width:0.71782422"
         class="cls-5"
         d="m 93.83547,102.11693 a 68.853697,68.853697 0 0 0 -2.92873,19.18027 68.911123,68.911123 0 0 0 19.19462,-2.95026 83.669589,83.669589 0 0 1 -8.61389,-7.75968 83.748549,83.748549 0 0 1 -7.652,-8.47033 z"
         id="path23" />
      <path
         style="fill:#a4ccd6;stroke-width:0.71782422"
         class="cls-4"
         d="m 104.52387,79.189629 a 104.32857,104.32857 0 0 1 13.63866,-16.696591 q 1.43565,-1.435648 2.8713,-2.727732 C 112.09691,43.707579 100.33178,38.180333 89.05476,43.441984 v 0 C 76.729716,49.184578 73.887132,63.655913 83.05375,83.30994 l 0.24406,0.516833 -0.27278,-0.717824 a 70.109889,70.109889 0 0 1 21.49884,-3.91932 z"
         id="path25" />
      <path
         style="fill:#a4ccd6;stroke-width:0.71782422"
         class="cls-4"
         d="m 152.4817,91.112689 q -1.29926,1.435648 -2.76362,2.907188 a 103.99119,103.99119 0 0 1 -16.84016,13.739153 70.023751,70.023751 0 0 1 -3.90496,21.30502 l -0.71782,-0.27277 0.51683,0.24406 c 19.66121,9.16662 34.12536,6.31685 39.86796,-6.00101 v 0 c 5.23293,-11.25548 -0.23689,-22.99191 -16.15823,-31.921641 z"
         id="path27" />
      <path
         style="fill:#7db6c4;stroke-width:0.71782422"
         class="cls-5"
         d="m 83.0035,83.101771 0.27277,0.717824 a 70.806179,70.806179 0 0 0 10.5592,18.282985 l 0.11485,-0.39481 A 86.332716,86.332716 0 0 1 104.52387,79.189629 70.109889,70.109889 0 0 0 83.0035,83.101771 Z"
         id="path29" />
      <path
         style="fill:#56a0b0;stroke-width:0.71782422"
         class="cls-7"
         d="m 129.90613,82.168599 a 88.026781,88.026781 0 0 0 -25.38226,-2.97897 86.332716,86.332716 0 0 0 -10.57355,22.539681 l -0.11485,0.3948 a 83.748549,83.748549 0 0 0 7.64482,8.47033 83.669589,83.669589 0 0 0 8.6139,7.75968 l 0.40198,-0.11485 a 86.526529,86.526529 0 0 0 22.37458,-10.47306 87.947821,87.947821 0 0 0 -2.96462,-25.597611 z"
         id="path31" />
      <path
         style="fill:#7db6c4;stroke-width:0.71782422"
         class="cls-5"
         d="m 129.90613,82.168599 a 105.4412,105.4412 0 0 0 -6.46042,-17.694366 q -1.16287,-2.49085 -2.40471,-4.708927 -1.43564,1.284906 -2.87129,2.727732 a 104.32857,104.32857 0 0 0 -13.63866,16.696591 88.026781,88.026781 0 0 1 25.37508,2.97897 z"
         id="path33" />
      <path
         style="fill:#7db6c4;stroke-width:0.71782422"
         class="cls-5"
         d="m 132.87792,107.76621 a 86.526529,86.526529 0 0 1 -22.37458,10.47306 l -0.40198,0.11485 a 70.741575,70.741575 0 0 0 18.13942,10.44434 v 0 l 0.71782,0.27277 a 70.023751,70.023751 0 0 0 3.91932,-21.30502 z"
         id="path35" />
      <path
         style="fill:#7db6c4;stroke-width:0.71782422"
         class="cls-5"
         d="m 149.71808,94.019877 q 1.43565,-1.435648 2.76362,-2.907188 v 0 q -2.29703,-1.284905 -4.8812,-2.498028 a 105.4412,105.4412 0 0 0 -17.69437,-6.460418 87.947821,87.947821 0 0 1 2.97179,25.597607 103.99119,103.99119 0 0 0 16.84016,-13.731973 z"
         id="path37" />
      <path
         style="fill:#1f2f56;stroke-width:0.71782422"
         class="cls-8"
         d="m 100.52559,148.151 h -3.06511 a 0.12203011,0.12203011 0 0 0 -0.13639,0.11485 v 17.29239 c 0,0.079 0.0431,0.11485 0.13639,0.11485 h 3.06511 c 0.0861,0 0.13638,-0.0359 0.13638,-0.11485 v -17.29239 c -0.007,-0.0646 -0.0502,-0.10049 -0.13638,-0.11485 z"
         id="path39" />
      <path
         style="fill:#1f2f56;stroke-width:0.71782422"
         class="cls-8"
         d="m 141.83637,154.56117 a 3.3737737,3.3737737 0 0 1 3.41684,-3.38813 h 4.84532 a 0.11485187,0.11485187 0 0 0 0.13638,-0.13639 v -2.73491 c 0,-0.079 -0.0431,-0.12203 -0.13638,-0.13638 h -4.84532 c -4.30694,0.2943 -5.69234,3.15842 -6.32403,5.51289 v 0 c -0.0502,0.0431 -0.0502,1.64381 -0.0502,3.30199 a 21.620865,21.620865 0 0 0 0.12203,3.45991 6.3383877,6.3383877 0 0 0 6.25224,5.24729 h 4.84532 a 0.11485187,0.11485187 0 0 0 0.13638,-0.13638 v -2.73491 c 0,-0.079 -0.0431,-0.12203 -0.13638,-0.13639 h -4.8166 a 3.323526,3.323526 0 0 1 -3.45274,-3.34506 c 0,-1.45 0.007,-2.39753 0.007,-4.77353 z"
         id="path41" />
      <path
         style="fill:#1f2f56;stroke-width:0.71782422"
         class="cls-8"
         d="m 104.05728,148.151 h 7.89607 c 2.56981,0 5.85745,2.55545 5.85745,5.84309 v 11.54979 a 0.11485187,0.11485187 0 0 1 -0.13639,0.13639 h -3.06511 a 0.11485187,0.11485187 0 0 1 -0.13639,-0.13639 v -10.5233 a 3.8762507,3.8762507 0 0 0 -3.96957,-3.94086 h -3.29481 v 14.46416 a 0.11485187,0.11485187 0 0 1 -0.13639,0.13639 h -3.01486 a 0.11485187,0.11485187 0 0 1 -0.13638,-0.13639 V 148.3161 c 0.0144,-0.12203 0.0574,-0.1651 0.13638,-0.1651 z"
         id="path43" />
      <path
         style="fill:#1f2f56;stroke-width:0.71782422"
         class="cls-8"
         d="m 70.061129,148.151 h -5.957941 c -0.05743,0 -0.08614,0 -0.09332,0.0933 v 2.80669 a 0.0861389,0.0861389 0 0 0 0.09332,0.0933 h 5.082196 v 14.42826 a 0.0861389,0.0861389 0 0 0 0.09332,0.0933 h 3.14407 a 0.0861389,0.0861389 0 0 0 0.09332,-0.0933 v -15.31837 a 2.5913454,2.5913454 0 0 0 -0.330199,-1.37104 Q 71.719303,148.151 70.061129,148.151 Z"
         id="path45" />
      <path
         style="fill:#1f2f56;stroke-width:0.71782422"
         class="cls-8"
         d="m 77.598283,148.151 h -9.137902 v 0.0933 a 1.1341622,1.1341622 0 0 1 0.667577,0.22252 0.98341915,0.98341915 0 0 1 0.358912,0.4307 1.1341622,1.1341622 0 0 1 0.107673,0.45223 2.225255,2.225255 0 0 1 0,0.25123 c 0,0.71783 0,1.54333 0,1.54333 h 8.00374 a 0.0861389,0.0861389 0 0 0 0.09332,-0.0933 v -2.80669 c 0,-0.0502 -0.05025,-0.0861 -0.09332,-0.0933 z"
         id="path47" />
      <path
         style="fill:#1f2f56;stroke-width:0.71782422"
         class="cls-8"
         d="m 170.87236,148.151 h 7.89607 c 2.56981,0 5.85744,2.55545 5.85744,5.84309 v 11.54979 a 0.11485187,0.11485187 0 0 1 -0.13639,0.13639 h -3.0651 a 0.11485187,0.11485187 0 0 1 -0.13639,-0.13639 v -10.5233 a 3.8762507,3.8762507 0 0 0 -3.96957,-3.94086 h -3.29481 v 14.46416 a 0.11485187,0.11485187 0 0 1 -0.13639,0.13639 h -3.0005 a 0.11485187,0.11485187 0 0 1 -0.13639,-0.13639 V 148.3161 c 0,-0.12203 0.0431,-0.1651 0.12203,-0.1651 z"
         id="path49" />
      <path
         style="fill:#1f2f56;stroke-width:0.71782422"
         class="cls-8"
         d="m 167.52012,152.68047 a 11.729247,11.729247 0 0 0 -0.20099,-1.66535 3.7039729,3.7039729 0 0 0 -3.86189,-2.8713 h -8.39855 c -0.079,0 -0.12203,0.0431 -0.13638,0.13639 v 2.73491 a 0.11485187,0.11485187 0 0 0 0.13638,0.13638 h 7.89607 a 1.2490141,1.2490141 0 0 1 0,2.49085 c -1.43565,0.19382 -2.8713,0.37327 -3.826,0.4307 a 5.8789802,5.8789802 0 0 0 -5.7426,5.46982 v 0.18663 a 7.0418554,7.0418554 0 0 0 0.53119,2.66313 c 0.83268,1.90941 2.65595,3.27328 5.46264,3.27328 h 7.98939 a 0.11485187,0.11485187 0 0 0 0.13638,-0.13639 v -12.62652 0 c 0.0144,-0.0718 0.0144,-0.14357 0.0144,-0.22253 z m -8.28369,9.99211 c -3.83318,0 -3.68244,-5.64927 0,-5.64927 a 17.120107,17.120107 0 0 0 4.95299,-0.47377 v 6.12304 z"
         id="path51" />
      <path
         style="fill:#1f2f56;stroke-width:0.71782422"
         class="cls-8"
         d="m 94.45279,152.68047 a 11.729247,11.729247 0 0 0 -0.20099,-1.66535 3.7039729,3.7039729 0 0 0 -3.86189,-2.8713 h -8.39854 c -0.079,0 -0.12203,0.0431 -0.13639,0.13639 v 2.73491 a 0.11485187,0.11485187 0 0 0 0.13639,0.13638 h 7.89606 a 1.2490141,1.2490141 0 0 1 0,2.49085 c -1.43565,0.19382 -2.87129,0.37327 -3.826,0.4307 a 5.8789802,5.8789802 0 0 0 -5.74259,5.46982 v 0.18663 a 7.0418554,7.0418554 0 0 0 0.53119,2.66313 c 0.83267,1.90941 2.65595,3.27328 5.46264,3.27328 h 8.00374 a 0.11485187,0.11485187 0 0 0 0.13638,-0.13639 v -12.62652 0 c -0.007,-0.0718 0,-0.14357 0,-0.22253 z m -8.29086,9.99929 c -3.83319,0 -3.68244,-5.64927 0,-5.64927 a 17.120107,17.120107 0 0 0 4.95298,-0.47377 v 6.12304 z"
         id="path53" />
      <path
         style="fill:#1f2f56;stroke-width:0.71782422"
         class="cls-8"
         d="m 135.44774,152.68047 a 11.729247,11.729247 0 0 0 -0.201,-1.66535 3.7039729,3.7039729 0 0 0 -3.86189,-2.8713 h -8.39854 c -0.079,0 -0.12203,0.0431 -0.13639,0.13639 v 2.73491 a 0.11485187,0.11485187 0 0 0 0.13639,0.13638 h 7.89606 a 1.2490141,1.2490141 0 0 1 0,2.49085 c -1.43564,0.19382 -2.87129,0.37327 -3.826,0.4307 a 5.8789802,5.8789802 0 0 0 -5.74259,5.46982 v 0.18663 a 7.0418554,7.0418554 0 0 0 0.53119,2.66313 c 0.83267,1.90941 2.65595,3.27328 5.46264,3.27328 h 7.99656 a 0.11485187,0.11485187 0 0 0 0.13639,-0.13639 v -12.62652 0 c 0.007,-0.0718 0.007,-0.14357 0.007,-0.22253 z m -8.27652,9.99929 c -3.83318,0 -3.68244,-5.64927 0,-5.64927 a 17.120107,17.120107 0 0 0 4.95299,-0.47377 v 6.12304 z"
         id="path55" />
    </g>
    <rect
       style="opacity:1;vector-effect:none;fill:#f2f2f2;fill-opacity:0.94117647;stroke:#a5a5a5;stroke-width:0.83399999;stroke-linecap:round;stroke-linejoin:miter;stroke-miterlimit:4.0999999;stroke-dasharray:none;stroke-dashoffset:0;stroke-opacity:1;paint-order:normal"
       id="rect839"
       width="203.93221"
       height="35.3694"
       x="26.033897"
       y="184.20253"
       rx="2.1694915"
       ry="2.1694915" />
    <path
       d="m 57.071863,195.15435 q 1.385234,0 2.609395,0.54765 1.22416,0.51543 2.126173,1.44966 0.902013,0.90201 1.417448,2.12617 0.547651,1.22416 0.547651,2.6094 0,1.38523 -0.547651,2.60939 -0.515435,1.22416 -1.417448,2.15839 -0.902013,0.90201 -2.126173,1.44966 -1.224161,0.51544 -2.609395,0.51544 h -5.379862 v -2.57718 h 5.379862 q 0.869798,0 1.610737,-0.32215 0.773154,-0.32214 1.320805,-0.8698 0.579865,-0.57986 0.902013,-1.3208 0.322147,-0.77315 0.322147,-1.64295 0,-0.8698 -0.322147,-1.61074 -0.322148,-0.77315 -0.902013,-1.3208 -0.547651,-0.57987 -1.320805,-0.90202 -0.740939,-0.32214 -1.610737,-0.32214 h -5.379862 v -2.57718 z m -13.433548,0 h 5.347647 v 2.57718 h -5.347647 q -0.869798,0 -1.642952,0.32214 -0.740939,0.32215 -1.320805,0.90202 -0.579865,0.54765 -0.902013,1.3208 -0.322147,0.74094 -0.322147,1.61074 0,0.8698 0.322147,1.64295 0.322148,0.74094 0.902013,1.3208 0.579866,0.54766 1.320805,0.8698 0.773154,0.32215 1.642952,0.32215 h 5.347647 v 2.54497 h -5.347647 q -1.385234,0 -2.641609,-0.51544 -1.224161,-0.54765 -2.126173,-1.44966 -0.902013,-0.90202 -1.449664,-2.12618 -0.515436,-1.22416 -0.515436,-2.60939 0,-1.38524 0.515436,-2.6094 0.547651,-1.22416 1.449664,-2.12617 0.902012,-0.93423 2.126173,-1.44966 1.256375,-0.54765 2.641609,-0.54765 z m 1.320804,8.0859 v -2.70604 h 10.759725 v 2.70604 z"
       style="font-style:normal;font-variant:normal;font-weight:normal;font-stretch:normal;font-size:32.21474457px;line-height:1.25;font-family:'Tainacan Icons';-inkscape-font-specification:'Tainacan Icons';letter-spacing:0px;word-spacing:0px;fill:#1f2f56;fill-opacity:1;stroke:none;stroke-width:0.8053686"
       id="path995" />
    <g
       id="text847"
       style="font-style:normal;font-weight:normal;font-size:40px;line-height:1.25;font-family:sans-serif;letter-spacing:0px;word-spacing:0px;fill:#000000;fill-opacity:1;stroke:none"
       aria-label="https://metada...">
      <path
         id="path999"
         style="font-style:italic;font-variant:normal;font-weight:normal;font-stretch:normal;font-size:18.66666603px;font-family:Roboto;-inkscape-font-specification:Roboto;fill:#6a6a6a;fill-opacity:1"
         d="m 80.583099,199.08906 q -0.847656,-0.0182 -1.494791,0.45572 -0.647136,0.46485 -1.11198,1.1211 l -1.221354,7.05469 h -1.649739 l 2.433593,-14 h 1.64974 l -1.002604,5.32291 q 1.294271,-1.39453 2.971354,-1.35807 1.585937,0.0273 2.141927,1.08464 0.565104,1.05729 0.419271,2.48828 l -1.075521,6.46224 h -1.658854 l 1.09375,-6.48959 q 0.10026,-0.88411 -0.209636,-1.49479 -0.300781,-0.61979 -1.285156,-0.64713 z" />
      <path
         id="path1001"
         style="font-style:italic;font-variant:normal;font-weight:normal;font-stretch:normal;font-size:18.66666603px;font-family:Roboto;-inkscape-font-specification:Roboto;fill:#6a6a6a;fill-opacity:1"
         d="m 89.205494,207.72057 q -0.492187,0.17317 -1.203125,0.17317 -1.139322,-0.0182 -1.549479,-0.82031 -0.401041,-0.80208 -0.309895,-1.80469 l 1.002604,-6.11588 h -1.75 l 0.227864,-1.29427 h 1.75 l 0.419271,-2.39714 h 1.64974 l -0.428386,2.39714 h 1.795573 l -0.227865,1.29427 h -1.786458 l -1.029948,6.14323 q -0.05469,0.47396 0.09115,0.80208 0.145833,0.32813 0.674479,0.33724 0.127604,0 0.792969,-0.0911 z" />
      <path
         id="path1003"
         style="font-style:italic;font-variant:normal;font-weight:normal;font-stretch:normal;font-size:18.66666603px;font-family:Roboto;-inkscape-font-specification:Roboto;fill:#6a6a6a;fill-opacity:1"
         d="m 95.129973,207.72057 q -0.492188,0.17317 -1.203125,0.17317 -1.139323,-0.0182 -1.549479,-0.82031 -0.401042,-0.80208 -0.309896,-1.80469 l 1.002604,-6.11588 h -1.75 l 0.227865,-1.29427 h 1.75 l 0.419271,-2.39714 h 1.649739 l -0.428385,2.39714 h 1.795573 l -0.227865,1.29427 h -1.786458 l -1.029948,6.14323 q -0.05469,0.47396 0.09115,0.80208 0.145833,0.32813 0.674479,0.33724 0.127604,0 0.792969,-0.0911 z" />
      <path
         id="path1005"
         style="font-style:italic;font-variant:normal;font-weight:normal;font-stretch:normal;font-size:18.66666603px;font-family:Roboto;-inkscape-font-specification:Roboto;fill:#6a6a6a;fill-opacity:1"
         d="m 101.41904,207.91197 q -1.686201,-0.0365 -2.615889,-1.15755 l -0.884114,4.75781 h -1.658854 l 2.369791,-13.65364 1.503906,-0.009 -0.173177,1.09375 q 1.212237,-1.30338 2.907557,-1.25781 1.35807,0.0273 2.04166,0.82031 0.69271,0.78386 0.89323,1.93229 0.20052,1.13933 0.082,2.24219 -0.4375,3.22656 -2.26041,4.58464 -0.90235,0.67448 -2.20573,0.64713 z m 0.89323,-8.82291 q -1.43099,-0.0365 -2.470056,1.35807 l -0.829427,4.73958 q 0.565104,1.29427 1.996093,1.33985 1.0026,0.0273 1.66797,-0.52865 0.66536,-0.55599 1.02995,-1.40365 0.37369,-0.85677 0.49218,-1.72265 l 0.0182,-0.18229 q 0.0911,-0.72917 0,-1.5586 -0.0911,-0.82942 -0.52864,-1.42187 -0.42839,-0.59245 -1.3763,-0.61979 z" />
      <path
         id="path1007"
         style="font-style:italic;font-variant:normal;font-weight:normal;font-stretch:normal;font-size:18.66666603px;font-family:Roboto;-inkscape-font-specification:Roboto;fill:#6a6a6a;fill-opacity:1"
         d="m 113.18596,205.04999 q 0.11849,-0.83854 -0.53776,-1.15755 -0.64713,-0.32812 -1.34895,-0.5013 -0.69271,-0.17318 -1.36719,-0.45573 -0.77474,-0.31901 -1.25781,-0.86589 -0.47396,-0.54687 -0.42839,-1.44921 0.0456,-0.97526 0.63802,-1.63151 0.59245,-0.66537 1.45833,-0.99349 0.875,-0.33724 1.75,-0.31901 1.38542,0.0273 2.3698,0.82942 0.99348,0.79297 0.94791,2.26042 l -1.63151,-0.009 q 0.0182,-0.77474 -0.49219,-1.22135 -0.5013,-0.45573 -1.25781,-0.46484 -0.72005,-0.009 -1.3763,0.35547 -0.65625,0.35546 -0.76563,1.14843 -0.0638,0.51953 0.2461,0.80209 0.30989,0.27343 0.78385,0.41927 l 0.70183,0.20052 q 0.97526,0.26432 1.70442,0.61067 0.73828,0.34636 1.13933,0.90235 0.41015,0.54687 0.36458,1.40364 -0.0547,1.03907 -0.66537,1.70443 -0.61067,0.66537 -1.51302,0.98438 -0.90234,0.31901 -1.83203,0.30078 -1.4401,-0.0274 -2.52474,-0.85677 -1.08463,-0.82943 -1.03906,-2.37891 l 1.64974,0.009 q 0,0.89322 0.54687,1.35807 0.55599,0.46484 1.42188,0.47396 0.72917,0.009 1.45833,-0.3099 0.73828,-0.32812 0.85677,-1.14844 z" />
      <path
         id="path1009"
         style="font-style:italic;font-variant:normal;font-weight:normal;font-stretch:normal;font-size:18.66666603px;font-family:Roboto;-inkscape-font-specification:Roboto;fill:#6a6a6a;fill-opacity:1"
         d="m 116.53101,206.85468 q 0,-0.44661 0.28256,-0.7474 0.29166,-0.30078 0.73828,-0.30989 0.44661,-0.009 0.72916,0.27344 0.29167,0.28255 0.28256,0.72916 0,0.44662 -0.29167,0.73828 -0.28255,0.29167 -0.72917,0.30079 -0.4375,0.009 -0.72916,-0.26433 -0.29167,-0.27344 -0.28256,-0.72005 z m 1.40365,-8.04818 q 0,-0.44661 0.28255,-0.74739 0.29167,-0.30078 0.73828,-0.3099 0.44662,-0.009 0.72917,0.27344 0.29167,0.28255 0.28255,0.72917 0,0.44661 -0.29167,0.73828 -0.28255,0.29166 -0.72916,0.30078 -0.4375,0.009 -0.72917,-0.26432 -0.29167,-0.27344 -0.28255,-0.72006 z" />
      <path
         id="path1011"
         style="font-style:italic;font-variant:normal;font-weight:normal;font-stretch:normal;font-size:18.66666603px;font-family:Roboto;-inkscape-font-specification:Roboto;fill:#6a6a6a;fill-opacity:1"
         d="m 128.96331,194.44973 -7.86589,14.41016 h -1.49479 l 7.875,-14.41016 z" />
      <path
         id="path1013"
         style="font-style:italic;font-variant:normal;font-weight:normal;font-stretch:normal;font-size:18.66666603px;font-family:Roboto;-inkscape-font-specification:Roboto;fill:#6a6a6a;fill-opacity:1"
         d="m 134.3956,194.44973 -7.86589,14.41016 h -1.49479 l 7.875,-14.41016 z" />
      <path
         id="path1015"
         style="font-style:italic;font-variant:normal;font-weight:normal;font-stretch:normal;font-size:18.66666603px;font-family:Roboto;-inkscape-font-specification:Roboto;fill:#6a6a6a;fill-opacity:1"
         d="m 139.16252,199.09817 q -1.52213,-0.0547 -2.45182,1.38542 l -1.2487,7.23698 h -1.65885 l 1.71354,-9.86198 1.5586,-0.009 -0.20964,1.08464 q 1.2487,-1.29427 2.98047,-1.25781 0.82943,0.0182 1.53125,0.39192 0.70182,0.36459 0.97526,1.1849 1.41276,-1.61328 3.26302,-1.57682 1.59505,0.0273 2.22396,1.05729 0.63802,1.02083 0.48307,2.50651 l -1.08463,6.48047 h -1.65886 l 1.09375,-6.50782 q 0.10026,-0.94791 -0.25521,-1.53125 -0.35547,-0.58333 -1.3763,-0.60156 -0.9388,-0.0182 -1.65885,0.58333 -0.72006,0.59245 -0.92058,1.50391 l -1.12109,6.55339 h -1.64974 l 1.09375,-6.4987 q 0.10026,-0.91146 -0.27344,-1.50391 -0.36458,-0.60156 -1.34896,-0.61979 z" />
      <path
         id="path1017"
         style="font-style:italic;font-variant:normal;font-weight:normal;font-stretch:normal;font-size:18.66666603px;font-family:Roboto;-inkscape-font-specification:Roboto;fill:#6a6a6a;fill-opacity:1"
         d="m 157.63779,206.00702 q -0.64714,0.94792 -1.64063,1.43099 -0.99349,0.48308 -2.13281,0.46485 -2.01432,-0.0365 -2.96224,-1.45834 -0.94792,-1.42187 -0.80208,-3.28125 l 0.0547,-0.48307 q 0.14584,-1.25781 0.76563,-2.41536 0.61979,-1.15756 1.64974,-1.88672 1.02995,-0.73828 2.41536,-0.70182 1.35808,0.0273 2.1237,0.73828 0.77474,0.71093 1.03906,1.80468 0.27344,1.09375 0.13672,2.28776 l -0.10026,0.75651 h -6.43489 q -0.12761,1.16667 0.39192,2.19662 0.51953,1.02995 1.85938,1.06641 0.82943,0.0182 1.48567,-0.35547 0.66537,-0.38282 1.21224,-0.96615 z m -2.73438,-6.95442 q -1.2487,-0.0456 -1.95052,0.875 -0.70182,0.92057 -1.02995,1.95963 l 4.78516,0.009 0.0273,-0.14584 q 0.13672,-0.98437 -0.30078,-1.82291 -0.4375,-0.83854 -1.53125,-0.875 z" />
      <path
         id="path1019"
         style="font-style:italic;font-variant:normal;font-weight:normal;font-stretch:normal;font-size:18.66666603px;font-family:Roboto;-inkscape-font-specification:Roboto;fill:#6a6a6a;fill-opacity:1"
         d="m 163.42555,207.72057 q -0.49219,0.17317 -1.20313,0.17317 -1.13932,-0.0182 -1.54948,-0.82031 -0.40104,-0.80208 -0.30989,-1.80469 l 1.0026,-6.11588 h -1.75 l 0.22787,-1.29427 h 1.75 l 0.41927,-2.39714 h 1.64974 l -0.42839,2.39714 h 1.79557 l -0.22786,1.29427 h -1.78646 l -1.02995,6.14323 q -0.0547,0.47396 0.0911,0.80208 0.14583,0.32813 0.67448,0.33724 0.1276,0 0.79297,-0.0911 z" />
      <path
         id="path1021"
         style="font-style:italic;font-variant:normal;font-weight:normal;font-stretch:normal;font-size:18.66666603px;font-family:Roboto;-inkscape-font-specification:Roboto;fill:#6a6a6a;fill-opacity:1"
         d="m 171.2094,207.72057 q -0.0547,-0.26433 -0.0547,-0.51954 l 0.0182,-0.51953 q -1.35807,1.25782 -2.88932,1.22136 -1.22136,-0.0182 -2.07813,-0.79297 -0.85677,-0.77474 -0.78385,-2.0599 0.0729,-1.24869 0.80208,-1.96875 0.72917,-0.72916 1.79557,-1.03906 1.07553,-0.3099 2.15105,-0.3099 l 1.71354,0.009 0.11849,-0.79297 q 0.0911,-0.85677 -0.33724,-1.3763 -0.41927,-0.52865 -1.30339,-0.54688 -0.76562,-0.009 -1.44922,0.38282 -0.68359,0.39192 -0.85677,1.17578 l -1.64974,0.009 q 0.10026,-0.98437 0.7474,-1.64062 0.65625,-0.65625 1.56771,-0.97526 0.92057,-0.31901 1.80468,-0.3099 1.48568,0.0273 2.3698,0.91146 0.89323,0.875 0.73828,2.39713 l -0.79297,4.83073 -0.0547,0.76563 q -0.0182,0.51041 0.11849,0.99349 l -0.0182,0.15495 z m -2.58854,-1.28516 q 0.82942,0.0182 1.53125,-0.39193 0.71093,-0.41927 1.17578,-1.08463 l 0.36458,-2.03255 -1.2487,-0.009 q -1.75911,0 -2.67968,0.69271 -0.54688,0.41016 -0.64714,1.21224 -0.0911,0.73828 0.33724,1.17578 0.4375,0.42839 1.16667,0.4375 z" />
      <path
         id="path1023"
         style="font-style:italic;font-variant:normal;font-weight:normal;font-stretch:normal;font-size:18.66666603px;font-family:Roboto;-inkscape-font-specification:Roboto;fill:#6a6a6a;fill-opacity:1"
         d="m 181.25367,207.72057 0.17318,-1.0573 q -1.19401,1.27605 -2.88021,1.23959 -1.29427,-0.0365 -1.99609,-0.82943 -0.70183,-0.80208 -0.92969,-1.94141 -0.22786,-1.13932 -0.11849,-2.20572 0.42839,-3.17188 2.2513,-4.56641 0.9388,-0.72005 2.28776,-0.68359 1.64063,0.0182 2.53386,1.17578 l 0.94791,-5.13151 h 1.65886 l -2.42448,14 z m -4.08333,-4.80339 q -0.082,0.72005 0,1.54037 0.082,0.82031 0.5013,1.40364 0.42839,0.58333 1.36719,0.61068 1.46745,0.0456 2.51562,-1.42188 l 0.79297,-4.5664 q -0.54687,-1.34896 -1.97786,-1.39453 -0.98438,-0.0365 -1.64063,0.5013 -0.65625,0.53776 -1.02995,1.38541 -0.37369,0.83855 -0.52864,1.94141 z" />
      <path
         id="path1025"
         style="font-style:italic;font-variant:normal;font-weight:normal;font-stretch:normal;font-size:18.66666603px;font-family:Roboto;-inkscape-font-specification:Roboto;fill:#6a6a6a;fill-opacity:1"
         d="m 191.27059,207.72057 q -0.0547,-0.26433 -0.0547,-0.51954 l 0.0182,-0.51953 q -1.35808,1.25782 -2.88933,1.22136 -1.22135,-0.0182 -2.07812,-0.79297 -0.85677,-0.77474 -0.78386,-2.0599 0.0729,-1.24869 0.80209,-1.96875 0.72916,-0.72916 1.79557,-1.03906 1.07552,-0.3099 2.15104,-0.3099 l 1.71354,0.009 0.11849,-0.79297 q 0.0911,-0.85677 -0.33724,-1.3763 -0.41927,-0.52865 -1.30338,-0.54688 -0.76563,-0.009 -1.44922,0.38282 -0.68359,0.39192 -0.85677,1.17578 l -1.64974,0.009 q 0.10026,-0.98437 0.74739,-1.64062 0.65625,-0.65625 1.56771,-0.97526 0.92058,-0.31901 1.80469,-0.3099 1.48568,0.0273 2.36979,0.91146 0.89323,0.875 0.73828,2.39713 l -0.79297,4.83073 -0.0547,0.76563 q -0.0182,0.51041 0.11849,0.99349 l -0.0182,0.15495 z m -2.58854,-1.28516 q 0.82943,0.0182 1.53125,-0.39193 0.71094,-0.41927 1.17578,-1.08463 l 0.36459,-2.03255 -1.2487,-0.009 q -1.75912,0 -2.67969,0.69271 -0.54687,0.41016 -0.64713,1.21224 -0.0911,0.73828 0.33724,1.17578 0.4375,0.42839 1.16666,0.4375 z" />
      <path
         id="path1027"
         style="font-style:italic;font-variant:normal;font-weight:normal;font-stretch:normal;font-size:18.66666603px;font-family:Roboto;-inkscape-font-specification:Roboto;fill:#6a6a6a;fill-opacity:1"
         d="m 195.32659,206.85468 q 0,-0.44661 0.28255,-0.7474 0.29167,-0.30078 0.73828,-0.30989 0.44661,-0.009 0.72917,0.27344 0.29166,0.28255 0.28255,0.72916 0,0.44662 -0.29167,0.73828 -0.28255,0.29167 -0.72916,0.30079 -0.4375,0.009 -0.72917,-0.26433 -0.29167,-0.27344 -0.28255,-0.72005 z" />
      <path
         id="path1029"
         style="font-style:italic;font-variant:normal;font-weight:normal;font-stretch:normal;font-size:18.66666603px;font-family:Roboto;-inkscape-font-specification:Roboto;fill:#6a6a6a;fill-opacity:1"
         d="m 200.10263,206.85468 q 0,-0.44661 0.28255,-0.7474 0.29166,-0.30078 0.73828,-0.30989 0.44661,-0.009 0.72917,0.27344 0.29166,0.28255 0.28255,0.72916 0,0.44662 -0.29167,0.73828 -0.28255,0.29167 -0.72917,0.30079 -0.4375,0.009 -0.72916,-0.26433 -0.29167,-0.27344 -0.28255,-0.72005 z" />
      <path
         id="path1031"
         style="font-style:italic;font-variant:normal;font-weight:normal;font-stretch:normal;font-size:18.66666603px;font-family:Roboto;-inkscape-font-specification:Roboto;fill:#6a6a6a;fill-opacity:1"
         d="m 204.87867,206.85468 q 0,-0.44661 0.28255,-0.7474 0.29167,-0.30078 0.73829,-0.30989 0.44661,-0.009 0.72916,0.27344 0.29167,0.28255 0.28255,0.72916 0,0.44662 -0.29166,0.73828 -0.28255,0.29167 -0.72917,0.30079 -0.4375,0.009 -0.72917,-0.26433 -0.29166,-0.27344 -0.28255,-0.72005 z" />
    </g>
  </g>
</svg>
